<svg width="24" height="24" viewBox="0 0 24 24" fill="none" xmlns="http://www.w3.org/2000/svg">
<g clip-path="url(#clip0_54_4614)">
<path fill-rule="evenodd" clip-rule="evenodd" d="M19.8783 4V10H13.8783L16.329 7.549L16.166 7.39412C15.0029 6.34523 13.4826 5.75 11.8641 5.75C8.3466 5.75 5.5 8.55096 5.5 12C5.5 15.449 8.3466 18.25 11.8641 18.25C14.6279 18.25 17.0357 16.5054 17.8954 14.0008L19.462 14L19.4057 14.2029C18.428 17.4616 15.376 19.75 11.8641 19.75C7.52355 19.75 4 16.2829 4 12C4 7.71706 7.52355 4.25 11.8641 4.25C13.876 4.25 15.7697 4.99895 17.2108 6.31674L17.39 6.488L19.8783 4Z" fill="#333333"/>
</g>
<defs>
<clipPath id="clip0_54_4614">
<rect width="24" height="24" fill="white"/>
</clipPath>
</defs>
</svg>
