<svg width="16" height="16" viewBox="0 0 16 16" fill="none" xmlns="http://www.w3.org/2000/svg">
<g clip-path="url(#clip0_6604_10081)">
<path fill-rule="evenodd" clip-rule="evenodd" d="M7.99992 1.33398C11.6818 1.33398 14.6666 4.31875 14.6666 8.00065C14.6666 11.6825 11.6818 14.6673 7.99992 14.6673C4.31802 14.6673 1.33325 11.6825 1.33325 8.00065C1.33325 4.31875 4.31802 1.33398 7.99992 1.33398ZM7.99992 2.33398C4.87031 2.33398 2.33325 4.87104 2.33325 8.00065C2.33325 11.1303 4.87031 13.6673 7.99992 13.6673C11.1295 13.6673 13.6666 11.1303 13.6666 8.00065C13.6666 4.87104 11.1295 2.33398 7.99992 2.33398ZM8.49992 7.33398V11.334H7.49992V7.33398H8.49992ZM8.49992 4.66732V6.00065H7.49992V4.66732H8.49992Z" fill="#ACACAC"/>
</g>
<defs>
<clipPath id="clip0_6604_10081">
<rect width="16" height="16" fill="white"/>
</clipPath>
</defs>
</svg>
