<svg width="24" height="24" viewBox="0 0 24 24" fill="none" xmlns="http://www.w3.org/2000/svg">
<g clip-path="url(#clip0_54_4619)">
<path fill-rule="evenodd" clip-rule="evenodd" d="M12.6635 2C13.5817 2 14.3347 2.70711 14.4077 3.60627L14.4135 3.74976L14.4139 4.83L14.507 4.86218C15.249 5.13202 15.9447 5.50859 16.5724 5.97769L16.8372 6.18436L16.9169 6.253L17.919 5.68673C18.6578 5.26826 19.5736 5.44511 20.1082 6.06776L20.2038 6.1897L20.2897 6.32186L21.2119 7.88884C21.6748 8.67553 21.4527 9.676 20.7204 10.2003L20.5663 10.299L19.6079 10.841L19.6468 11.0501C19.6741 11.2255 19.6954 11.402 19.7106 11.5796L19.729 11.8468L19.7393 12.25C19.7393 12.5534 19.7218 12.8547 19.6872 13.1529L19.6468 13.4499L19.6079 13.658L20.5661 14.2009C21.316 14.6256 21.6322 15.5206 21.3521 16.3096L21.2926 16.4561L21.2119 16.6112L20.2897 18.1781C19.8322 18.9556 18.8656 19.251 18.0598 18.885L17.9194 18.8135L16.9169 18.246L16.8372 18.3156C16.2293 18.8109 15.5505 19.2156 14.8221 19.5157L14.507 19.6378L14.4139 19.669L14.4135 20.75C14.4135 21.6172 13.7828 22.337 12.9551 22.4758L12.807 22.4942L12.6635 22.5H10.7902C9.87204 22.5 9.11902 21.7929 9.04602 20.8937L9.04021 20.7502L9.03887 19.669L8.94673 19.6378C8.20469 19.368 7.50905 18.9914 6.88133 18.5223L6.61652 18.3156L6.53587 18.246L5.53472 18.8133C4.79593 19.2317 3.88018 19.0549 3.34554 18.4322L3.2499 18.3103L3.16401 18.1781L2.24186 16.6112C1.7789 15.8245 2.00104 14.824 2.73337 14.2997L2.88745 14.201L3.84487 13.658L3.80694 13.4499C3.77965 13.2745 3.75834 13.098 3.74309 12.9204L3.72476 12.6532L3.71442 12.25C3.71442 11.9466 3.73192 11.6453 3.76658 11.3471L3.80694 11.0501L3.84487 10.841L2.88759 10.2991C2.13775 9.87438 1.8215 8.97937 2.10162 8.19043L2.16117 8.04389L2.24186 7.88884L3.16401 6.32186C3.62156 5.54436 4.58811 5.24903 5.39395 5.61503L5.53435 5.68652L6.53587 6.253L6.61652 6.18436C7.2244 5.68911 7.90327 5.28437 8.63161 4.98432L8.94673 4.86218L9.03887 4.83L9.04021 3.75C9.04021 2.88284 9.67094 2.16299 10.4987 2.02418L10.6467 2.0058L10.7902 2H12.6635ZM12.6635 3.5H10.7902C10.6719 3.5 10.5727 3.58223 10.5468 3.69283L10.5402 3.75024L10.5397 5.38151C10.5396 5.72012 10.3126 6.01667 9.98577 6.10519C8.9163 6.39486 7.94325 6.94933 7.15502 7.71003C6.94263 7.915 6.63291 7.97414 6.36371 7.86993L6.26493 7.82315L4.79544 6.9919C4.6965 6.93586 4.57533 6.95456 4.49764 7.03041L4.45677 7.08263L3.53255 8.6532C3.47584 8.75331 3.49572 8.87594 3.57352 8.95346L3.627 8.99401L5.06493 9.80888C5.3612 9.97677 5.50718 10.3232 5.4204 10.6525C5.28411 11.1697 5.21442 11.705 5.21442 12.25C5.21442 12.795 5.28411 13.3303 5.4204 13.8475C5.49753 14.1402 5.39077 14.4465 5.15801 14.6288L5.06493 14.6911L3.62328 15.5081C3.52412 15.5665 3.48003 15.6826 3.50861 15.7886L3.53462 15.8504L4.45677 17.4174C4.51444 17.5154 4.62873 17.5597 4.73415 17.5328L4.79581 17.5079L6.26493 16.6768C6.55396 16.5134 6.91608 16.5594 7.15502 16.79C7.94325 17.5507 8.9163 18.1051 9.98577 18.3948C10.2763 18.4735 10.4879 18.7165 10.5314 19.0074L10.5397 19.1185L10.5402 20.75C10.5402 20.8683 10.6224 20.9675 10.7329 20.9934L10.7902 21H12.6635C12.7819 21 12.881 20.9178 12.9069 20.8072L12.9135 20.7498L12.914 19.1185C12.9141 18.7799 13.1411 18.4833 13.468 18.3948C14.5374 18.1051 15.5105 17.5507 16.2987 16.79C16.5111 16.585 16.8208 16.5259 17.09 16.6301L17.1888 16.6768L18.6583 17.5081C18.7572 17.5641 18.8784 17.5454 18.9561 17.4696L18.997 17.4174L19.9212 15.8468C19.9779 15.7467 19.958 15.6241 19.8802 15.5465L19.8267 15.506L18.3888 14.6911C18.0925 14.5232 17.9466 14.1768 18.0333 13.8475C18.1696 13.3303 18.2393 12.795 18.2393 12.25C18.2393 11.705 18.1696 11.1697 18.0333 10.6525C17.9562 10.3598 18.063 10.0535 18.2957 9.87119L18.3888 9.80888L19.8304 8.99187C19.9296 8.93352 19.9737 8.81738 19.9451 8.71142L19.9191 8.64962L18.997 7.08263C18.9393 6.98463 18.825 6.94025 18.7196 6.96722L18.6579 6.99211L17.1888 7.82315C16.8998 7.98665 16.5376 7.94062 16.2987 7.71003C15.5105 6.94933 14.5374 6.39486 13.468 6.10519C13.1774 6.0265 12.9658 5.78345 12.9223 5.4926L12.914 5.38151L12.9135 3.75C12.9135 3.63165 12.8313 3.53251 12.7208 3.5066L12.6635 3.5ZM11.7269 9.125C13.4749 9.125 14.8977 10.5209 14.8977 12.25C14.8977 13.9791 13.4749 15.375 11.7269 15.375C9.97885 15.375 8.55605 13.9791 8.55605 12.25C8.55605 10.5209 9.97885 9.125 11.7269 9.125ZM11.7269 10.625C10.8009 10.625 10.0561 11.3558 10.0561 12.25C10.0561 13.1442 10.8009 13.875 11.7269 13.875C12.6528 13.875 13.3977 13.1442 13.3977 12.25C13.3977 11.3558 12.6528 10.625 11.7269 10.625Z" fill="#333333"/>
</g>
<defs>
<clipPath id="clip0_54_4619">
<rect width="24" height="24" fill="white"/>
</clipPath>
</defs>
</svg>
