<svg width="16" height="16" viewBox="0 0 16 16" fill="none" xmlns="http://www.w3.org/2000/svg">
<path d="M14.4667 7.66671L12.7022 12.6662C12.5611 13.066 12.1832 13.3334 11.7592 13.3333L6.13335 13.3331C5.58108 13.3331 5.13338 12.8854 5.13338 12.3331V6.6359C5.13338 6.43845 5.19133 6.24591 5.30158 6.08211C5.81313 5.32211 6.75443 3.94976 7.46672 3.00004C8.46672 1.66671 9.25319 1.72733 9.80005 2.00004C10.4671 2.33267 10.4667 3.33337 10.1334 4.66671C9.86672 5.73337 10.4667 6.00004 10.8001 6.00004H12.8001C14.4001 6.00004 14.5778 7.22226 14.4667 7.66671Z" stroke="#EF7014"/>
<rect x="1.80005" y="4.66797" width="3.33333" height="8.66667" rx="1" stroke="#EF7014"/>
</svg>
