<svg width="24" height="24" viewBox="0 0 24 24" fill="none" xmlns="http://www.w3.org/2000/svg">
<path d="M17.6199 16.3861C17.1527 16.3861 16.7065 16.6116 16.4461 16.9996C14.8341 19.4023 12.0927 20.9836 8.98203 20.9836C4.02139 20.9836 0 16.9622 0 12.0016C0 7.04092 4.02139 3.01953 8.98203 3.01953C10.181 3.01953 11.3252 3.25446 12.3709 3.6808C13.5064 4.14375 14.8108 4.14602 15.9969 3.83492C16.5151 3.699 17.0591 3.62663 17.6199 3.62663C21.1434 3.62663 23.9997 6.48292 23.9997 10.0063C23.9997 13.5298 21.1434 16.3861 17.6199 16.3861Z" fill="#8340B4"/>
<path d="M18.5658 6.94308C18.5658 6.46969 18.1821 6.08594 17.7087 6.08594C17.2353 6.08594 16.8516 6.46969 16.8516 6.94308V8.96094L14.8344 8.96094C14.361 8.96094 13.9772 9.34469 13.9772 9.81808C13.9772 10.2915 14.361 10.6752 14.8344 10.6752L16.8516 10.6752V12.6933C16.8516 13.1667 17.2353 13.5504 17.7087 13.5504C18.1821 13.5504 18.5658 13.1667 18.5658 12.6933V6.94308Z" fill="white"/>
<path fill-rule="evenodd" clip-rule="evenodd" d="M4.81977 16.029C5.54256 16.979 6.56809 17.4952 7.6956 17.4952C8.71269 17.4952 9.61564 17.1015 10.3273 16.3735C11.0137 15.6718 11.4311 14.7408 11.6001 13.7808C11.6704 13.3835 11.7248 12.9365 11.7476 12.5376C12.0751 12.7727 12.4894 13.1051 12.7757 13.3735L13.955 11.864C13.3173 11.2843 12.5987 10.7634 11.8078 10.3058V6.1276H9.84759V9.46469C9.5776 9.39495 9.30392 9.34264 9.0297 9.30777C6.42967 8.97861 4.73417 10.5378 4.20582 12.228C3.79635 13.5367 4.03199 14.9934 4.81977 16.029ZM6.03921 12.8018C6.12903 12.5138 6.63889 11.1797 8.34442 11.1797C8.86485 11.1797 9.40008 11.2976 9.88616 11.4793C9.86873 12.1984 9.8254 12.8261 9.71603 13.4464C9.54907 14.3916 8.94094 15.4082 7.98356 15.5561C7.11653 15.6908 6.58659 15.1852 6.3483 14.8724C6.02072 14.4418 5.76764 13.6715 6.03921 12.8018Z" fill="white"/>
<path d="M20.583 10.6752C21.0563 10.6752 21.4401 10.2915 21.4401 9.81808C21.4401 9.34469 21.0563 8.96094 20.583 8.96094H19.3087C19.2857 8.96094 19.267 8.97959 19.267 9.0026V10.6336C19.267 10.6566 19.2857 10.6752 19.3087 10.6752H20.583Z" fill="white"/>
</svg>
