<svg width="20" height="20" viewBox="0 0 20 20" fill="none" xmlns="http://www.w3.org/2000/svg">
<path fill-rule="evenodd" clip-rule="evenodd" d="M19.2 10.2178C19.2 9.53825 19.139 8.88484 19.0258 8.25757H10V11.9646H15.1576C14.9354 13.1625 14.2602 14.1775 13.2453 14.857V17.2615H16.3424C18.1545 15.5932 19.2 13.1364 19.2 10.2178Z" fill="#4285F4"/>
<path fill-rule="evenodd" clip-rule="evenodd" d="M9.99993 19.5832C12.5874 19.5832 14.7567 18.725 16.3424 17.2614L13.2452 14.8569C12.387 15.4319 11.2893 15.7716 9.99993 15.7716C7.50391 15.7716 5.39122 14.0858 4.63762 11.8207H1.43591V14.3036C3.01281 17.4356 6.25372 19.5832 9.99993 19.5832Z" fill="#34A853"/>
<path fill-rule="evenodd" clip-rule="evenodd" d="M4.63765 11.8209C4.44598 11.2459 4.33708 10.6317 4.33708 10C4.33708 9.36842 4.44598 8.75421 4.63765 8.17921V5.69626H1.43594C0.786891 6.99001 0.416626 8.45364 0.416626 10C0.416626 11.5464 0.786891 13.0101 1.43594 14.3038L4.63765 11.8209Z" fill="#FBBC05"/>
<path fill-rule="evenodd" clip-rule="evenodd" d="M9.99993 4.22821C11.4069 4.22821 12.6702 4.71173 13.6634 5.66135L16.412 2.91268C14.7524 1.36628 12.5831 0.416656 9.99993 0.416656C6.25372 0.416656 3.01281 2.56419 1.43591 5.6962L4.63762 8.17916C5.39122 5.914 7.50391 4.22821 9.99993 4.22821Z" fill="#EA4335"/>
</svg>
