<svg width="21" height="20" viewBox="0 0 21 20" fill="none" xmlns="http://www.w3.org/2000/svg">
<g clip-path="url(#clip0_1351_14882)">
<path fill-rule="evenodd" clip-rule="evenodd" d="M12.666 1.66602C13.1526 1.66602 13.6148 1.87862 13.9314 2.24803L14.8609 3.33268H17.5992C18.5197 3.33268 19.2659 4.07887 19.2659 4.99935V14.9993C19.2659 15.9198 18.5197 16.666 17.5992 16.666H4.26591C3.34544 16.666 2.59924 15.9198 2.59924 14.9993V4.99935C2.59924 4.07887 3.34544 3.33268 4.26591 3.33268H7.00341L7.93371 2.24803C8.25034 1.87862 8.71259 1.66602 9.19913 1.66602H12.666ZM10.9326 5.83268C13.2338 5.83268 15.0992 7.69816 15.0992 9.99935C15.0992 12.3005 13.2338 14.166 10.9326 14.166C8.63139 14.166 6.76591 12.3005 6.76591 9.99935C6.76591 7.69816 8.63139 5.83268 10.9326 5.83268ZM10.9326 7.08268C9.32175 7.08268 8.01591 8.38852 8.01591 9.99935C8.01591 11.6102 9.32175 12.916 10.9326 12.916C12.5434 12.916 13.8492 11.6102 13.8492 9.99935C13.8492 8.38852 12.5434 7.08268 10.9326 7.08268Z" fill="#EF7014"/>
</g>
<defs>
<clipPath id="clip0_1351_14882">
<rect width="20" height="20" fill="white" transform="translate(0.932617)"/>
</clipPath>
</defs>
</svg>
