<svg width="24" height="24" viewBox="0 0 24 24" fill="none" xmlns="http://www.w3.org/2000/svg">
<path d="M8.34638 11.184C6.64085 11.184 6.13098 12.5181 6.04116 12.806C5.76959 13.6757 6.02267 14.446 6.35025 14.8766C6.58854 15.1894 7.11848 15.6951 7.98551 15.5603C8.94289 15.4124 9.55103 14.3958 9.71799 13.4506C9.82736 12.8303 9.87068 12.2026 9.88812 11.4835C9.40203 11.3018 8.86681 11.184 8.34638 11.184Z" fill="#333333"/>
<path fill-rule="evenodd" clip-rule="evenodd" d="M16.4457 16.9808C16.7062 16.5925 17.1527 16.3668 17.6203 16.3668C21.1437 16.3668 24 13.5106 24 9.98713C24 6.46372 21.1437 3.60742 17.6203 3.60742C17.2939 3.60742 16.9732 3.63194 16.66 3.67923C15.0432 3.92332 13.292 3.93066 11.7355 3.4299C10.8678 3.15076 9.94252 3 8.98203 3C4.02139 3 0 7.02139 0 11.982C0 16.9427 4.02139 20.9641 8.98203 20.9641C12.0925 20.9641 14.8336 19.383 16.4457 16.9808ZM18.5658 6.94503C18.5658 6.47165 18.1821 6.08789 17.7087 6.08789C17.2353 6.08789 16.8516 6.47165 16.8516 6.94503V8.96289L14.8337 8.96289C14.3603 8.96289 13.9766 9.34665 13.9766 9.82003C13.9766 10.2934 14.3603 10.6772 14.8337 10.6772L16.8516 10.6772V12.6953C16.8516 13.1686 17.2353 13.5524 17.7087 13.5524C18.1821 13.5524 18.5658 13.1686 18.5658 12.6953V6.94503ZM7.69756 17.4994C6.57005 17.4994 5.54451 16.9832 4.82172 16.0332C4.03394 14.9976 3.7983 13.541 4.20777 12.2322C4.73613 10.542 6.43162 8.98284 9.03165 9.312C9.30587 9.34688 9.57956 9.39918 9.84955 9.46893V6.13184H11.8097V10.3101C12.6007 10.7676 13.3193 11.2886 13.957 11.8682L12.7777 13.3777C12.4913 13.1093 12.0771 12.777 11.7495 12.5418C11.7268 12.9407 11.6724 13.3877 11.6021 13.7851C11.433 14.7451 11.0156 15.676 10.3293 16.3777C9.6176 17.1058 8.7157 17.4994 7.69861 17.4994H7.69756ZM21.4414 9.82003C21.4414 10.2934 21.0576 10.6772 20.5843 10.6772L19.3683 10.6772C19.3131 10.6772 19.2683 10.6324 19.2683 10.5772V9.06289C19.2683 9.00766 19.3131 8.96289 19.3683 8.96289H20.5843C21.0576 8.96289 21.4414 9.34665 21.4414 9.82003Z" fill="#333333"/>
</svg>
